<?xml version="1.0" encoding="UTF-8"?>
<svg width="173px" height="130px" viewBox="0 0 173 130" version="1.1" xmlns="http://www.w3.org/2000/svg" xmlns:xlink="http://www.w3.org/1999/xlink">
    <title>undraw_Loading_re_5axr</title>
    <g id="页面-1" stroke="none" stroke-width="1" fill="none" fill-rule="evenodd">
        <g id="报告详情-质量性评价（查询不到）" transform="translate(-101.000000, -825.000000)">
            <g id="编组-8" transform="translate(12.000000, 700.000000)">
                <g id="编组-11" transform="translate(89.000000, 125.000000)">
                    <g id="undraw_Loading_re_5axr" transform="translate(0.000000, 0.000000)">
                        <ellipse id="椭圆形" fill="#D6DAE0" cx="86.5" cy="123.5" rx="86.5" ry="3.5"></ellipse>
                        <path d="M107,35.4809632 C107,36.2198279 106.976037,36.9525162 106.928156,37.6790279 C106.659652,41.8690927 105.601029,45.9705733 103.8081,49.7672256 C103.794188,49.7996522 103.777902,49.8297627 103.764104,49.8598732 C103.680634,50.0359036 103.594902,50.2119341 103.506908,50.3856484 C102.973667,51.4594403 102.382124,52.5032832 101.734927,53.5125054 C95.7311191,62.9211812 85.4311109,68.7171492 74.2723118,68.9661277 L74.603591,88.0144775 L78.9235536,85.7399786 L79.6949154,87.2061271 L74.63605,89.869746 L75.2544959,125.247238 L75.2613963,125.719741 L71.9212436,126 L71.9281416,125.988419 L72.9797628,68.9684439 C64.0461435,68.8402426 55.5364142,65.1379252 49.3530313,58.689191 C49.1423203,58.4714691 48.9337588,58.2467986 48.7299481,58.0244443 C48.7206827,58.0151796 48.7137754,58.0059148 48.7067615,57.9989662 C46.1562483,55.2177421 44.0935319,52.0259739 42.6055426,48.5581742 C42.6380038,48.5952332 42.6727166,48.6299761 42.7051848,48.6670351 C35.7234141,32.3416229 42.6917886,13.4048186 58.5905923,5.49787856 C58.7064096,5.4399738 58.8246035,5.38438523 58.9404208,5.32648047 C74.646307,-2.23810595 93.5291595,3.49393549 102.378811,18.5125524 C102.582735,18.8553601 102.779647,19.2051072 102.969548,19.5571542 C105.620944,24.4455899 107.006524,29.919874 107,35.4809632 L107,35.4809632 Z" id="路径" fill="#D6DAE0" fill-rule="nonzero"></path>
                        <circle id="椭圆形" fill="#2F2E41" fill-rule="nonzero" cx="82" cy="116" r="10"></circle>
                        <rect id="矩形" fill="#2F2E41" fill-rule="nonzero" x="85" y="123" width="9" height="3"></rect>
                        <ellipse id="椭圆形" fill="#2F2E41" fill-rule="nonzero" cx="94" cy="123.5" rx="1" ry="2.5"></ellipse>
                        <rect id="矩形" fill="#2F2E41" fill-rule="nonzero" x="83" y="123" width="9" height="3"></rect>
                        <ellipse id="椭圆形" fill="#2F2E41" fill-rule="nonzero" cx="92" cy="123.5" rx="1" ry="2.5"></ellipse>
                        <path d="M73.150372,106.998659 C72.3290794,103.538341 74.9544298,100.041844 79.0142718,99.189 C83.0741138,98.3361564 87.0310333,100.449944 87.8523258,103.91026 C88.6736184,107.370575 85.9830225,108.646803 81.9231946,109.499631 C77.8633668,110.352459 73.9716693,110.458974 73.150372,106.998659 Z" id="路径" fill="#005EFA" fill-rule="nonzero"></path>
                        <path d="M86.3639962,114.99955 C85.3132304,115.018432 84.366302,114.441547 84.0118396,113.566576 C83.9859657,113.498441 84.003161,113.423274 84.0569481,113.369391 C84.1107352,113.315507 84.1929427,113.291093 84.2726037,113.305345 C84.3522647,113.319597 84.4172769,113.370349 84.4431508,113.438484 C84.7875993,114.345342 85.966901,114.819594 87.07164,114.495337 C87.6201555,114.337383 88.0758214,113.994073 88.3393014,113.54025 C88.5676722,113.145464 88.6074543,112.68617 88.4497385,112.26523 C88.4238646,112.197095 88.4410598,112.121929 88.4948469,112.068045 C88.5486341,112.014162 88.6308415,111.989748 88.7105025,112.003999 C88.7901636,112.018251 88.8551758,112.069004 88.8810497,112.137139 C89.0776282,112.659432 89.0290919,113.22963 88.7463127,113.720012 C88.4284794,114.269346 87.8779977,114.685313 87.214844,114.877254 C86.9404541,114.958016 86.6531845,114.999306 86.3639962,114.99955 Z" id="路径" fill="#FFFFFF" fill-rule="nonzero"></path>
                        <path d="M90.7774604,116.77266 C91.2867149,117.862912 90.8923368,119.19875 89.8965923,119.756339 C88.9008478,120.313927 87.6808051,119.882118 87.1715506,118.791866 L87.1715506,118.791866 L87.1697418,118.787989 C86.6614595,117.697194 87.3638066,117.020124 88.3600517,116.463614 C89.3562969,115.907104 90.2692034,115.681876 90.7774604,116.77266 Z" id="路径" fill="#FFFFFF" fill-rule="nonzero"></path>
                        <ellipse id="椭圆形" fill="#2F2E41" fill-rule="nonzero" transform="translate(78.869207, 123.962860) rotate(-14.461300) translate(-78.869207, -123.962860) " cx="78.8692071" cy="123.96286" rx="1.73653005" ry="5.53158637"></ellipse>
                        <path d="M96.8275972,104 L93.1724039,104 C93.1011253,104 93.0371932,103.952008 93.0115493,103.879228 C92.9859054,103.806449 93.0038393,103.723903 93.0566714,103.671542 L96.3804946,100.377276 L93.3094732,100.377276 C93.2142718,100.377276 93.1370959,100.29282 93.1370959,100.188638 C93.1370959,100.084456 93.2142718,100 93.3094732,100 L96.8275972,100 C96.8988757,100 96.962807,100.047994 96.9884507,100.120774 C97.0140944,100.193553 96.996161,100.276099 96.9433297,100.328461 L93.6195087,103.622721 L96.8275972,103.622721 C96.9227986,103.622721 97,103.707177 97,103.811359 C97,103.915541 96.9227986,104 96.8275972,104 L96.8275972,104 Z" id="路径" fill="#CBCBCB" fill-rule="nonzero"></path>
                        <path d="M101.827596,99 L98.1724028,99 C98.1011243,99 98.037193,98.9520057 98.0115493,98.8792262 C97.9859056,98.8064467 98.003839,98.7239015 98.0566703,98.6715394 L101.380493,95.3772765 L98.3094721,95.3772765 C98.2142707,95.3772765 98.1370948,95.2928202 98.1370948,95.1886382 C98.1370948,95.0844562 98.2142707,95 98.3094721,95 L101.827596,95 C101.898875,95 101.962807,95.0479922 101.988451,95.1207718 C102.014095,95.1935513 101.996161,95.2760968 101.943329,95.3284581 L98.6195076,98.6227235 L101.827596,98.6227235 C101.922797,98.6227235 102,98.7071798 102,98.8113618 C102,98.9155438 101.922797,99 101.827596,99 L101.827596,99 Z" id="路径" fill="#CBCBCB" fill-rule="nonzero"></path>
                        <path d="M99.8275973,93 L96.1724038,93 C96.1011252,93 96.0371932,92.9520078 96.0115493,92.8792282 C95.9859054,92.8064487 96.0038393,92.7239032 96.0566714,92.6715419 L99.3804927,89.3772765 L96.309473,89.3772765 C96.2142717,89.3772765 96.1370958,89.2928202 96.1370958,89.1886382 C96.1370958,89.0844562 96.2142717,89 96.309473,89 L99.8275973,89 C99.8988757,89 99.962807,89.0479943 99.9884507,89.1207738 C100.014094,89.1935533 99.996161,89.2760985 99.9433297,89.3284606 L96.6195106,92.6227235 L99.8275973,92.6227235 C99.9227986,92.6227235 100,92.7071798 100,92.8113618 C100,92.9155438 99.9227986,93 99.8275973,93 L99.8275973,93 Z" id="路径" fill="#CBCBCB" fill-rule="nonzero"></path>
                        <path d="M126.193594,41.1784586 L129,39.0300868 C126.819822,38.7998667 125.924033,39.937911 125.557419,40.8386856 C123.854181,40.1617553 122,41.0489071 122,41.0489071 L127.615102,43 C127.33183,42.2758193 126.838722,41.643944 126.193594,41.1784586 L126.193594,41.1784586 Z" id="路径" fill="#3F3D56" fill-rule="nonzero"></path>
                        <path d="M41.193594,2.17845863 L44,0.0300867676 C41.8198224,-0.200133271 40.9240329,0.937911 40.5574186,1.83868558 C38.8541806,1.16175528 37,2.04890711 37,2.04890711 L42.6151019,4 C42.33183,3.27581932 41.8387224,2.64394399 41.193594,2.17845863 L41.193594,2.17845863 Z" id="路径" fill="#3F3D56" fill-rule="nonzero"></path>
                        <path d="M133.193594,10.1784586 L136,8.03008677 C133.819822,7.79986673 132.924033,8.937911 132.557419,9.83868558 C130.854181,9.16175528 129,10.0489071 129,10.0489071 L134.615102,12 C134.33183,11.2758193 133.838722,10.643944 133.193594,10.1784586 L133.193594,10.1784586 Z" id="路径" fill="#3F3D56" fill-rule="nonzero"></path>
                    </g>
                </g>
            </g>
        </g>
    </g>
</svg>