<?xml version="1.0" encoding="UTF-8"?>
<svg width="178px" height="64px" viewBox="0 0 178 64" version="1.1" xmlns="http://www.w3.org/2000/svg" xmlns:xlink="http://www.w3.org/1999/xlink">
    <title>编组 2</title>
    <g id="页面-1" stroke="none" stroke-width="1" fill="none" fill-rule="evenodd">
        <g id="编组-2" transform="translate(0.000000, 0.400824)">
            <ellipse id="椭圆形" fill="#E6E6E6" cx="83.5" cy="60.5991764" rx="83.5" ry="3"></ellipse>
            <g id="编组-3" transform="translate(50.273284, 25.599176)">
                <polygon id="矩形备份-3" fill="#C3C3C3" transform="translate(39.478156, 10.509257) scale(1, -1) translate(-39.478156, -10.509257) " points="27.7267158 8.48086134 51.2295964 6.26115902 51.2295964 13.0185146 27.7267158 14.7573556"></polygon>
                <polygon id="矩形备份-3" fill="#CECECE" transform="translate(17.226716, 11.009257) scale(-1, -1) translate(-17.226716, -11.009257) " points="6.72671576 8.20741563 27.7267158 6.26115902 27.7267158 13.0185146 6.72671576 15.7573556"></polygon>
                <polygon id="矩形" fill="#DADADA" points="6.72671576 9 31.7267158 10 31.7267158 37 6.72671576 34.5024038"></polygon>
                <polygon id="矩形备份" fill="#CECECE" points="31.7267158 11 51.7811072 8.4364653 51.7811072 33.3356687 31.7267158 37"></polygon>
                <polygon id="矩形备份" fill="#EDEDED" points="31.7267158 10.8141475 51.5844426 8 59.6266794 13.320972 38.3767496 17.0753065"></polygon>
                <polygon id="矩形备份-2" fill="#E0E0E0" transform="translate(41.997021, 4.000000) scale(1, -1) translate(-41.997021, -4.000000) " points="27.7267158 1.73884098 51.7811072 2.84217094e-13 56.2673268 6.37573237 34.3767496 8"></polygon>
                <polygon id="矩形备份-4" fill="#E0E0E0" transform="translate(14.493822, 4.500000) scale(-1, -1) translate(-14.493822, -4.500000) " points="0.720316597 2.73884098 22.2609276 -6.39488462e-14 28.2673268 6.79305739 9.76092763 9"></polygon>
                <polygon id="矩形" fill="#EDEDED" points="6.72671576 9 31.7267158 10 28.1284694 16.9836173 -2.61599023e-14 14.523775"></polygon>
            </g>
            <g id="编组" transform="translate(15.000000, 43.599176)" fill-rule="nonzero">
                <path d="M0.84281228,9.01843476 C1.96129369,9.414777 3.20386163,9.19413466 4.12068381,8.43638432 C5.26875591,7.46491629 5.62877984,5.86498804 5.9215815,4.38315523 L6.78787879,1.687539e-14 L4.97422439,1.25890028 C3.66986431,2.16423215 2.33621145,3.09865263 1.43316921,4.40995591 C0.530126975,5.7212592 0.136157564,7.51144053 0.861511381,8.9303903" id="b9ccae5a-ffdd-4f5c-9c1e-05af9f0f3372" fill="#E6E6E6"></path>
                <path d="M0.869290981,14.9091132 C0.622452872,13.2112916 0.368484244,11.4915139 0.542045061,9.77548711 C0.695852947,8.2514536 1.18835894,6.76317348 2.19102441,5.54235614 C2.72323557,4.8957058 3.37084019,4.34165455 4.10472273,3.90511191 C4.29604466,3.79112696 4.47217634,4.07735157 4.28167145,4.19090433 C3.01182291,4.94853642 2.0296246,6.0673176 1.47668866,7.38594335 C0.866021311,8.8522674 0.767964558,10.4507801 0.873150314,12.0084676 C0.936730768,12.9504491 1.07183772,13.886254 1.20752675,14.8209555 C1.22975782,14.9086642 1.17622593,14.9976407 1.08504676,15.0245321 C0.991754096,15.0482581 0.895608159,14.9966996 0.869413764,14.9088985 L0.869290981,14.9091132 Z" id="f4ad1d06-bd03-4ced-a5c4-c19a65ab4ee5" fill="#F2F2F2"></path>
                <path d="M2.42424242,11.9511403 C2.92220523,12.6894927 3.77913197,13.1209458 4.68474653,13.0892788 C5.82936306,13.0363108 6.78320919,12.2575666 7.64178365,11.5179984 L10.1818182,9.33092015 L8.50080348,9.25245598 C7.29188705,9.19598778 6.05177472,9.14302258 4.90031617,9.50700288 C3.74885762,9.87098318 2.68694359,10.7456001 2.47642578,11.9079247" id="baf785f8-b4c6-42cf-85bd-8a16037845f7" fill="#E6E6E6"></path>
                <path d="M0.0229394987,15.7776202 C1.20505818,13.7972174 2.57609642,11.596223 5.02613393,10.8927195 C5.70730496,10.6977956 6.42155253,10.6279658 7.13041802,10.68699 C7.35386604,10.7052643 7.2980602,11.0313106 7.07507962,11.0131505 C5.88681951,10.9197428 4.70085262,11.2168179 3.71683193,11.8543643 C2.76990597,12.4646328 2.03259192,13.3131092 1.40863111,14.2127682 C1.02637245,14.7639277 0.683990604,15.3384198 0.341607254,15.9121424 C0.232203088,16.0955229 -0.0877388076,15.9630994 0.0229394987,15.7776202 Z" id="a14e4330-7125-4e03-a856-d6453c34f6cc" fill="#F2F2F2"></path>
            </g>
            <path d="M162.424242,6.55031663 C162.922205,7.28866907 163.779132,7.72012211 164.684747,7.68845517 C165.829363,7.63548714 166.783209,6.85674292 167.641784,6.11717471 L170.181818,3.9300965 L168.500803,3.85163233 C167.291887,3.79516413 166.051775,3.74219894 164.900316,4.10617924 C163.748858,4.47015953 162.686944,5.34477649 162.476426,6.50710109" id="baf785f8-b4c6-42cf-85bd-8a16037845f7" fill="#E6E6E6" transform="translate(166.303030, 5.750692) rotate(-15.000000) translate(-166.303030, -5.750692) "></path>
            <path d="M133.5,33.0991764 C144.070264,22.6871888 151.877058,18.7546357 156.920381,21.3015171 C164.485367,25.1218391 161.227877,32.8603354 156.920381,32.8603354 C152.612886,32.8603354 144.469003,28.0496525 154.225787,16.5495882 C160.730309,8.8828786 168.390352,3.36634921 177.205917,-3.55271368e-14" id="直线-2" stroke="#C3C3C3" stroke-width="0.5" stroke-linecap="square" stroke-dasharray="2"></path>
        </g>
    </g>
</svg>