<svg t="1630999887914" class="icon" viewBox="0 0 1024 1024" version="1.1" xmlns="http://www.w3.org/2000/svg" p-id="2343" width="32" height="32"><path d="M473.87332 0c261.200277 0 473.826794 209.555762 473.826794 467.220018a461.683354 461.683354 0 0 1-132.042462 322.661903l197.644954 174.660819c13.725344 13.492711 13.725344 35.360208 0 48.899446a35.453262 35.453262 0 0 1-49.597345 0l-200.29697-177.266308a475.408698 475.408698 0 0 1-289.534971 98.217632C212.533464 934.39351 0 724.744694 0 467.173491 0 209.555762 212.533464 0 473.87332 0z m1.349272 63.881008c-226.677547 0-410.411052 181.174542-410.411052 404.641755 0 223.467212 183.733504 404.641754 410.364525 404.641754 226.677547 0 410.411052-181.174542 410.411051-404.641754 0-223.467212-183.733504-404.641754-410.364524-404.641755z m280.508811 192.340924a34.894943 34.894943 0 0 1 0 49.364712l-345.459931 345.459932a34.894943 34.894943 0 0 1-49.318186 0l-0.604845-0.511793a35.034522 35.034522 0 0 1-5.862351-4.745712L173.544181 464.847162a34.894943 34.894943 0 1 1 49.364712-49.318186l162.052114 162.052114 321.405684-321.359158a34.894943 34.894943 0 0 1 49.318186 0z" fill="#999999" p-id="2344"></path></svg>