<svg t="1630999646525" class="icon" viewBox="0 0 1024 1024" version="1.1" xmlns="http://www.w3.org/2000/svg" p-id="2207" width="32" height="32">
<defs>
<linearGradient id="orange_red" x1="0%" y1="0%" x2="0%" y2="100%">
<stop offset="0%" style="stop-color:#0060FF;
stop-opacity:1"/>
<stop offset="100%" style="stop-color:#004DCD;
stop-opacity:1"/>
</linearGradient>
</defs>
<path style="fill:url(#orange_red)" d="M474.112 0C735.418182 0 948.037818 209.640727 948.037818 467.362909a461.870545 461.870545 0 0 1-132.049454 322.839273l197.725091 174.685091a34.350545 34.350545 0 0 1 0 48.965818 35.281455 35.281455 0 0 1-49.617455 0l-200.378182-177.338182a475.554909 475.554909 0 0 1-289.652363 98.210909C212.619636 934.772364 0 725.085091 0 467.456 0 209.594182 212.619636 0 474.112 0z m281.925818 256.325818a34.909091 34.909091 0 0 0-49.384727 0l-321.536 321.489455L222.999273 415.650909a34.909091 34.909091 0 0 0-45.474909-3.351273l-3.909819 3.351273a34.909091 34.909091 0 0 0 0 49.384727l181.061819 181.061819c1.768727 1.768727 3.723636 3.351273 5.818181 4.654545l0.558546 0.558545a34.909091 34.909091 0 0 0 49.384727 0l345.6-345.6a34.909091 34.909091 0 0 0 0-49.338181z" p-id="2208"></path></svg>