<svg t="1627872817322" class="icon" viewBox="0 0 1024 1024" version="1.1" xmlns="http://www.w3.org/2000/svg" p-id="1889" width="32" height="32">
<defs>
<linearGradient id="orange_red" x1="0%" y1="0%" x2="0%" y2="100%">
<stop offset="0%" style="stop-color:#0060FF;
stop-opacity:1"/>
<stop offset="100%" style="stop-color:#004DCD;
stop-opacity:1"/>
</linearGradient>
</defs>
<path style="fill:url(#orange_red)" d="M512 118.153846C374.941538 118.153846 263.876923 230.4 263.876923 368.797538s111.064615 250.604308 248.123077 250.604308 248.123077-112.206769 248.123077-250.604308C760.123077 230.360615 649.058462 118.153846 512 118.153846z m0 537.048616c50.018462 0 98.461538 6.695385 143.911385 19.771076 43.165538 12.445538 81.723077 30.089846 114.530461 52.460308 31.468308 21.464615 55.926154 46.001231 72.625231 72.979692 12.878769 20.716308 20.716308 42.259692 23.394461 64.196924-13.666462 5.986462-44.228923 16.147692-106.732307 25.363692-69.513846 10.24-157.499077 15.872-247.729231 15.872s-178.215385-5.632-247.729231-15.872c-62.503385-9.176615-93.065846-19.377231-106.732307-25.324308a157.853538 157.853538 0 0 1 23.394461-64.236308c16.738462-26.978462 41.156923-51.515077 72.625231-72.979692 32.807385-22.370462 71.364923-40.014769 114.530461-52.460308A519.483077 519.483077 0 0 1 512 655.202462" fill="#355DEE" p-id="1890"></path></svg>